<?xml version="1.0" encoding="UTF-8" standalone="no"?><!DOCTYPE svg PUBLIC "-//W3C//DTD SVG 1.1//EN" "http://www.w3.org/Graphics/SVG/1.1/DTD/svg11.dtd"><svg width="100%" height="100%" viewBox="0 0 168 202" version="1.1" xmlns="http://www.w3.org/2000/svg" xmlns:xlink="http://www.w3.org/1999/xlink" xml:space="preserve" xmlns:serif="http://www.serif.com/" style="fill-rule:evenodd;clip-rule:evenodd;stroke-linejoin:round;stroke-miterlimit:2;"><g><path d="M4.489,123.502c-2.478,-0 -4.489,-2.008 -4.489,-4.48l0,-36.445c0,-2.473 2.011,-4.48 4.489,-4.48c2.478,0 4.49,2.007 4.49,4.48l-0,36.445c-0,2.473 -2.009,4.48 -4.49,4.48Z" style="fill:#dc3036;fill-rule:nonzero;"/><path d="M36.126,162.549c-2.478,-0 -4.489,-2.007 -4.489,-4.48l0,-114.54c0,-2.473 2.011,-4.48 4.489,-4.48c2.478,0 4.49,2.007 4.49,4.48l-0,114.542c-0,2.473 -2.012,4.478 -4.49,4.478Z" style="fill:#098e91;fill-rule:nonzero;"/><path d="M67.763,201.598c-2.478,0 -4.489,-2.006 -4.489,-4.479l-0,-192.639c-0,-2.473 2.011,-4.48 4.489,-4.48c2.478,0 4.489,2.007 4.489,4.48l0,192.639c0,2.473 -2.009,4.479 -4.489,4.479Z" style="fill:#fbc430;fill-rule:nonzero;"/><path d="M99.4,162.549c-2.478,-0 -4.489,-2.007 -4.489,-4.48l-0,-114.54c-0,-2.473 2.011,-4.48 4.489,-4.48c2.478,0 4.489,2.007 4.489,4.48l0,114.542c0,2.473 -2.011,4.478 -4.489,4.478Z" style="fill:#30c156;fill-rule:nonzero;"/><path d="M131.036,123.502c-2.477,-0 -4.489,-2.008 -4.489,-4.48l0,-36.445c0,-2.473 2.012,-4.48 4.489,-4.48c2.479,0 4.49,2.007 4.49,4.48l-0,36.445c-0,2.473 -2.009,4.48 -4.49,4.48Z" style="fill:#dc3036;fill-rule:nonzero;"/><path d="M162.674,162.549c-2.479,-0 -4.49,-2.007 -4.49,-4.48l0,-114.54c0,-2.473 2.011,-4.48 4.49,-4.48c2.478,0 4.489,2.007 4.489,4.48l-0,114.542c-0,2.473 -2.009,4.478 -4.489,4.478Z" style="fill:#fbc430;fill-rule:nonzero;"/></g></svg>