<svg width="410" height="117" viewBox="0 0 410 117" fill="none" xmlns="http://www.w3.org/2000/svg">
<path d="M174.99 104.925L166.303 75.187H170.556L177.267 99.2293H177.147L184.456 75.187H189.249L196.618 99.2293H196.498L203.148 75.187H207.402L198.715 104.925H194.461L186.792 79.5038H186.912L179.244 104.925H174.99Z" fill="white"/>
<path d="M149.694 105.645C146.938 105.645 144.442 105.005 142.205 103.726C140.009 102.447 138.251 100.648 136.933 98.33C135.655 95.9717 135.016 93.2138 135.016 90.0561C135.016 86.8584 135.675 84.1005 136.993 81.7822C138.311 79.4639 140.089 77.6652 142.325 76.3861C144.562 75.1071 147.038 74.4675 149.754 74.4675C152.59 74.4675 155.106 75.1071 157.303 76.3861C159.5 77.6652 161.237 79.4639 162.515 81.7822C163.834 84.1005 164.493 86.8784 164.493 90.116C164.493 93.2337 163.834 95.9717 162.515 98.33C161.197 100.648 159.42 102.447 157.183 103.726C154.987 105.005 152.49 105.645 149.694 105.645ZM149.694 102.047C151.532 102.047 153.229 101.608 154.787 100.728C156.385 99.8089 157.683 98.4699 158.681 96.7112C159.68 94.9125 160.179 92.6941 160.179 90.0561C160.179 87.378 159.68 85.1597 158.681 83.401C157.723 81.6423 156.444 80.3232 154.847 79.4439C153.289 78.5246 151.612 78.0649 149.814 78.0649C147.977 78.0649 146.26 78.5246 144.662 79.4439C143.104 80.3232 141.826 81.6423 140.828 83.401C139.829 85.1597 139.33 87.378 139.33 90.0561C139.33 92.6941 139.809 94.9125 140.768 96.7112C141.766 98.4699 143.044 99.8089 144.602 100.728C146.16 101.608 147.857 102.047 149.694 102.047Z" fill="white"/>
<path d="M97.8809 104.925V62.9558H103.872L125.081 99.8887H125.26V62.9558H129.454V104.925H123.643L102.254 67.7523H102.075V104.925H97.8809Z" fill="white"/>
<path d="M362.131 51.6309V21.4131H368.481L369.081 25.55C370.039 24.0312 371.297 22.852 372.855 22.0126C374.453 21.1333 376.27 20.6936 378.307 20.6936C379.825 20.6936 381.183 20.8935 382.381 21.2932C383.619 21.6929 384.698 22.2924 385.616 23.0918C386.575 23.8913 387.354 24.8905 387.953 26.0896C389.071 24.4109 390.529 23.0918 392.326 22.1325C394.124 21.1733 396.081 20.6936 398.198 20.6936C400.714 20.6936 402.851 21.2132 404.608 22.2525C406.366 23.2517 407.704 24.7506 408.622 26.7492C409.541 28.7077 410 31.1259 410 34.0038V51.6309H402.871V34.7233C402.871 32.1652 402.351 30.2066 401.313 28.8476C400.274 27.4886 398.737 26.8091 396.7 26.8091C395.302 26.8091 394.064 27.1489 392.985 27.8284C391.947 28.5079 391.128 29.5071 390.529 30.8262C389.93 32.1052 389.63 33.6841 389.63 35.5627V51.6309H382.501V34.7233C382.501 32.1652 381.982 30.2066 380.943 28.8476C379.905 27.4886 378.347 26.8091 376.27 26.8091C374.952 26.8091 373.754 27.1489 372.675 27.8284C371.637 28.5079 370.818 29.5071 370.219 30.8262C369.62 32.1052 369.32 33.6841 369.32 35.5627V51.6309H362.131Z" fill="white"/>
<path d="M340.79 52.3504C338.314 52.3504 336.257 51.9307 334.619 51.0913C332.982 50.2519 331.763 49.1327 330.965 47.7337C330.166 46.3348 329.766 44.8159 329.766 43.1771C329.766 41.2585 330.246 39.5997 331.204 38.2007C332.203 36.8018 333.661 35.7226 335.578 34.9631C337.495 34.1637 339.851 33.764 342.647 33.764H350.256C350.256 32.1652 350.036 30.8461 349.597 29.8069C349.158 28.7277 348.479 27.9283 347.56 27.4087C346.641 26.8891 345.463 26.6292 344.025 26.6292C342.388 26.6292 340.99 27.009 339.831 27.7684C338.673 28.4879 337.954 29.6071 337.675 31.1259H330.605C330.845 28.9675 331.564 27.1289 332.762 25.61C333.96 24.0511 335.538 22.852 337.495 22.0126C339.492 21.1333 341.669 20.6936 344.025 20.6936C346.861 20.6936 349.278 21.1932 351.275 22.1925C353.272 23.1518 354.789 24.5508 355.828 26.3894C356.906 28.1881 357.445 30.3665 357.445 32.9246V51.6309H351.334L350.616 46.7745C350.216 47.5739 349.697 48.3133 349.058 48.9928C348.459 49.6723 347.76 50.2719 346.961 50.7915C346.162 51.2712 345.243 51.6509 344.205 51.9307C343.206 52.2105 342.068 52.3504 340.79 52.3504ZM342.408 46.6545C343.566 46.6545 344.584 46.4547 345.463 46.055C346.382 45.6153 347.161 45.0157 347.8 44.2563C348.479 43.4569 348.998 42.5775 349.357 41.6182C349.717 40.6589 349.957 39.6397 350.076 38.5605V38.4406H343.426C342.028 38.4406 340.87 38.6204 339.951 38.9802C339.033 39.2999 338.374 39.7796 337.974 40.4191C337.575 41.0586 337.375 41.7981 337.375 42.6375C337.375 43.4769 337.575 44.1963 337.974 44.7959C338.374 45.3955 338.953 45.8551 339.712 46.1749C340.471 46.4947 341.369 46.6545 342.408 46.6545Z" fill="white"/>
<path d="M297.445 51.6312V8.46289H304.635V26.0899C305.633 24.4511 306.991 23.1521 308.709 22.1928C310.426 21.1935 312.363 20.6939 314.52 20.6939C316.996 20.6939 319.093 21.2135 320.811 22.2528C322.528 23.252 323.826 24.7509 324.705 26.7495C325.624 28.708 326.083 31.1662 326.083 34.124V51.6312H318.954V34.7836C318.954 32.1855 318.394 30.2069 317.276 28.8479C316.198 27.4889 314.54 26.8094 312.303 26.8094C310.865 26.8094 309.567 27.1692 308.409 27.8886C307.251 28.5681 306.332 29.5674 305.653 30.8864C304.974 32.1655 304.635 33.7443 304.635 35.6229V51.6312H297.445Z" fill="white"/>
<path d="M278.096 65.5407C275.26 65.5407 272.764 65.1809 270.607 64.4615C268.49 63.782 266.833 62.7227 265.635 61.2838C264.476 59.8848 263.897 58.1261 263.897 56.0077C263.897 54.7686 264.197 53.5495 264.796 52.3504C265.435 51.1912 266.374 50.112 267.612 49.1127C268.89 48.0735 270.507 47.1742 272.465 46.4147L275.64 49.8922C273.723 50.5717 272.385 51.3911 271.626 52.3504C270.867 53.3096 270.487 54.2889 270.487 55.2882C270.487 56.3274 270.807 57.1868 271.446 57.8663C272.125 58.5858 273.024 59.1254 274.142 59.4851C275.3 59.8448 276.598 60.0247 278.036 60.0247C279.434 60.0247 280.652 59.8249 281.691 59.4252C282.729 59.0654 283.528 58.5458 284.087 57.8663C284.686 57.1868 284.986 56.3674 284.986 55.4081C284.986 54.209 284.567 53.2297 283.728 52.4703C282.889 51.7508 281.232 51.3111 278.755 51.1512C276.638 50.9914 274.781 50.7715 273.183 50.4917C271.586 50.172 270.208 49.8122 269.05 49.4125C267.931 49.0128 266.973 48.5731 266.174 48.0935C265.375 47.5739 264.716 47.0542 264.197 46.5346V45.1556L270.487 38.5605L275.82 40.2992L268.75 47.1941L270.607 43.7167C271.007 43.9965 271.406 44.2563 271.806 44.4961C272.245 44.7359 272.784 44.9558 273.423 45.1556C274.102 45.3155 274.981 45.4754 276.059 45.6353C277.138 45.7952 278.536 45.9551 280.253 46.1149C282.929 46.3148 285.106 46.7944 286.783 47.5539C288.461 48.3133 289.699 49.3326 290.498 50.6116C291.297 51.8907 291.696 53.4296 291.696 55.2282C291.696 56.9869 291.197 58.6457 290.198 60.2046C289.24 61.7634 287.762 63.0425 285.765 64.0418C283.768 65.041 281.212 65.5407 278.096 65.5407ZM278.096 42.5775C275.58 42.5775 273.403 42.0979 271.566 41.1386C269.769 40.1393 268.391 38.8203 267.432 37.1815C266.473 35.5027 265.994 33.6641 265.994 31.6655C265.994 29.627 266.473 27.7884 267.432 26.1496C268.391 24.5108 269.769 23.1918 271.566 22.1925C273.403 21.1932 275.58 20.6936 278.096 20.6936C280.613 20.6936 282.769 21.1932 284.567 22.1925C286.364 23.1918 287.742 24.5108 288.701 26.1496C289.659 27.7884 290.138 29.627 290.138 31.6655C290.138 33.6641 289.659 35.5027 288.701 37.1815C287.742 38.8203 286.364 40.1393 284.567 41.1386C282.769 42.0979 280.613 42.5775 278.096 42.5775ZM278.096 37.0016C279.814 37.0016 281.192 36.542 282.23 35.6226C283.269 34.7033 283.788 33.3843 283.788 31.6655C283.788 29.9468 283.269 28.6478 282.23 27.7684C281.192 26.8491 279.814 26.3894 278.096 26.3894C276.379 26.3894 274.981 26.8491 273.902 27.7684C272.824 28.6478 272.285 29.9468 272.285 31.6655C272.285 33.3843 272.824 34.7033 273.902 35.6226C274.981 36.542 276.379 37.0016 278.096 37.0016ZM283.069 26.6892L281.691 21.4131H294.093V25.9098L283.069 26.6892Z" fill="white"/>
<path d="M232.233 51.6309V21.4131H238.584L239.123 26.4494C240.042 24.6907 241.36 23.2917 243.077 22.2525C244.795 21.2132 246.832 20.6936 249.188 20.6936C251.625 20.6936 253.702 21.2132 255.419 22.2525C257.137 23.2517 258.455 24.7306 259.373 26.6892C260.332 28.6478 260.811 31.086 260.811 34.0038V51.6309H253.622V34.6633C253.622 32.1452 253.063 30.2066 251.944 28.8476C250.826 27.4886 249.168 26.8091 246.972 26.8091C245.534 26.8091 244.236 27.1489 243.077 27.8284C241.959 28.5079 241.06 29.5071 240.381 30.8262C239.742 32.1052 239.423 33.6641 239.423 35.5027V51.6309H232.233Z" fill="white"/>
<path d="M219.731 51.6309V21.4131H226.92V51.6309H219.731ZM223.325 16.6166C222.007 16.6166 220.909 16.2169 220.03 15.4175C219.191 14.5781 218.772 13.5589 218.772 12.3598C218.772 11.1207 219.191 10.1214 220.03 9.36196C220.909 8.56255 222.007 8.16284 223.325 8.16284C224.643 8.16284 225.722 8.56255 226.56 9.36196C227.439 10.1214 227.879 11.1207 227.879 12.3598C227.879 13.5589 227.439 14.5781 226.56 15.4175C225.722 16.2169 224.643 16.6166 223.325 16.6166Z" fill="white"/>
<path d="M166.962 51.6309V21.4131H173.313L173.912 25.55C174.871 24.0312 176.129 22.852 177.687 22.0126C179.284 21.1333 181.102 20.6936 183.139 20.6936C184.656 20.6936 186.014 20.8935 187.212 21.2932C188.451 21.6929 189.529 22.2924 190.448 23.0918C191.406 23.8913 192.185 24.8905 192.784 26.0896C193.903 24.4109 195.36 23.0918 197.158 22.1325C198.955 21.1733 200.912 20.6936 203.029 20.6936C205.545 20.6936 207.682 21.2132 209.44 22.2525C211.197 23.2517 212.535 24.7506 213.454 26.7492C214.372 28.7077 214.832 31.1259 214.832 34.0038V51.6309H207.702V34.7233C207.702 32.1652 207.183 30.2066 206.145 28.8476C205.106 27.4886 203.568 26.8091 201.531 26.8091C200.133 26.8091 198.895 27.1489 197.817 27.8284C196.778 28.5079 195.96 29.5071 195.36 30.8262C194.761 32.1052 194.462 33.6841 194.462 35.5627V51.6309H187.332V34.7233C187.332 32.1652 186.813 30.2066 185.775 28.8476C184.736 27.4886 183.178 26.8091 181.102 26.8091C179.783 26.8091 178.585 27.1489 177.507 27.8284C176.468 28.5079 175.65 29.5071 175.05 30.8262C174.451 32.1052 174.152 33.6841 174.152 35.5627V51.6309H166.962Z" fill="white"/>
<path d="M146.146 51.6309V21.4131H152.556L153.215 27.0489C153.934 25.7299 154.833 24.6107 155.911 23.6914C156.989 22.7321 158.248 21.9927 159.686 21.473C161.163 20.9534 162.781 20.6936 164.538 20.6936V28.308H162.022C160.824 28.308 159.686 28.4679 158.607 28.7877C157.529 29.0675 156.59 29.5471 155.791 30.2266C155.032 30.8661 154.433 31.7655 153.994 32.9246C153.555 34.0438 153.335 35.4628 153.335 37.1815V51.6309H146.146Z" fill="white"/>
<path d="M133.644 51.6309V21.4131H140.833V51.6309H133.644ZM137.238 16.6166C135.92 16.6166 134.822 16.2169 133.943 15.4175C133.104 14.5781 132.685 13.5589 132.685 12.3598C132.685 11.1207 133.104 10.1214 133.943 9.36196C134.822 8.56255 135.92 8.16284 137.238 8.16284C138.556 8.16284 139.635 8.56255 140.474 9.36196C141.352 10.1214 141.792 11.1207 141.792 12.3598C141.792 13.5589 141.352 14.5781 140.474 15.4175C139.635 16.2169 138.556 16.6166 137.238 16.6166Z" fill="white"/>
<path d="M98.9585 51.6308V9.66162H115.374C118.33 9.66162 120.786 10.1213 122.743 11.0406C124.74 11.9599 126.238 13.239 127.237 14.8778C128.235 16.4766 128.735 18.3353 128.735 20.4537C128.735 22.5721 128.275 24.3508 127.357 25.7898C126.438 27.2287 125.22 28.3279 123.702 29.0874C122.224 29.8468 120.607 30.3065 118.849 30.4663L119.748 29.8068C121.625 29.8468 123.303 30.3464 124.78 31.3057C126.298 32.265 127.496 33.5241 128.375 35.083C129.254 36.6018 129.693 38.3006 129.693 40.1792C129.693 42.3776 129.154 44.3561 128.075 46.1149C127.037 47.8336 125.499 49.1926 123.462 50.1919C121.425 51.1512 118.929 51.6308 115.973 51.6308H98.9585ZM106.148 45.7551H114.895C117.251 45.7551 119.089 45.1955 120.407 44.0763C121.725 42.9572 122.384 41.3983 122.384 39.3998C122.384 37.4013 121.705 35.8224 120.347 34.6633C118.989 33.4641 117.132 32.8646 114.775 32.8646H106.148V45.7551ZM106.148 27.4086H114.356C116.672 27.4086 118.43 26.889 119.628 25.8497C120.826 24.7705 121.425 23.2916 121.425 21.413C121.425 19.5743 120.826 18.1354 119.628 17.0962C118.43 16.017 116.652 15.4774 114.296 15.4774H106.148V27.4086Z" fill="white"/>
<g clip-path="url(#clip0_5073_1204)">
<path d="M2.15486 67.4436C0.965377 67.4436 0 66.4802 0 65.2932V47.7998C0 46.6128 0.965377 45.6494 2.15486 45.6494C3.34434 45.6494 4.30972 46.6128 4.30972 47.7998V65.2932C4.30972 66.4802 3.34542 67.4436 2.15486 67.4436Z" fill="#DC3036"/>
<path d="M17.3404 86.1862C16.1509 86.1862 15.1855 85.2228 15.1855 84.0358V29.0569C15.1855 27.8699 16.1509 26.9065 17.3404 26.9065C18.5299 26.9065 19.4953 27.8699 19.4953 29.0569V84.0369C19.4953 85.2239 18.5299 86.1862 17.3404 86.1862Z" fill="#098E91"/>
<path d="M32.5264 104.93C31.337 104.93 30.3716 103.967 30.3716 102.78V10.3132C30.3716 9.12621 31.337 8.16284 32.5264 8.16284C33.7159 8.16284 34.6813 9.12621 34.6813 10.3132V102.78C34.6813 103.967 33.717 104.93 32.5264 104.93Z" fill="#FBC430"/>
<path d="M47.712 86.1862C46.5225 86.1862 45.5571 85.2228 45.5571 84.0358V29.0569C45.5571 27.8699 46.5225 26.9065 47.712 26.9065C48.9015 26.9065 49.8668 27.8699 49.8668 29.0569V84.0369C49.8668 85.2239 48.9015 86.1862 47.712 86.1862Z" fill="#30C156"/>
<path d="M62.8975 67.4436C61.7081 67.4436 60.7427 66.4802 60.7427 65.2932V47.7998C60.7427 46.6128 61.7081 45.6494 62.8975 45.6494C64.087 45.6494 65.0524 46.6128 65.0524 47.7998V65.2932C65.0524 66.4802 64.0881 67.4436 62.8975 67.4436Z" fill="#DC3036"/>
<path d="M78.0831 86.1862C76.8936 86.1862 75.9282 85.2228 75.9282 84.0358V29.0569C75.9282 27.8699 76.8936 26.9065 78.0831 26.9065C79.2726 26.9065 80.2379 27.8699 80.2379 29.0569V84.0369C80.2379 85.2239 79.2736 86.1862 78.0831 86.1862Z" fill="#FBC430"/>
</g>
<defs>
<clipPath id="clip0_5073_1204">
<rect width="89.7241" height="117" fill="white"/>
</clipPath>
</defs>
</svg>
